<svg xmlns="http://www.w3.org/2000/svg" viewBox="0 0 64 64" width="800" height="800" role="img">
  <rect width="64" height="64" rx="10" fill="#e7f2e6"/>
  <circle cx="12" cy="12" r="2.5" fill="#c3e0c4"/>
  <circle cx="53" cy="16" r="1.8" fill="#c3e0c4"/>
  <circle cx="50" cy="52" r="3" fill="#c3e0c4"/>
  <circle cx="10" cy="50" r="1.5" fill="#c3e0c4"/>
  <path d="M14 40 q3-2 6 0 M44 10 q3-2 6 0" stroke="#c3e0c4" stroke-width="1.6" fill="none" stroke-linecap="round"/>
  <g transform="translate(6 6) scale(0.82)">
    <path d="M18 24 C8 12 24 6 26 18 M46 24 C56 12 40 6 38 18 M16 34 C16 20 48 20 48 34 C48 50 40 54 32 54 C24 54 16 50 16 34 Z M23 34 a2.5 2.5 0 1 0 0.1 0 M41 34 a2.5 2.5 0 1 0 0.1 0 M26 44 q6 4 12 0 M32 8 q6-4 8 2" fill="#f2faf1" stroke="#8dbb90" stroke-width="2" stroke-linecap="round" stroke-linejoin="round"/>
  </g>
</svg>
